<svg xmlns="http://www.w3.org/2000/svg" viewBox="0 0 1100 300" role="img" aria-labelledby="title desc">
  <title id="title">Gokul Over Seeker GitHub Skyline 2026</title>
  <desc id="desc">A stylized red and black GitHub skyline panel for the profile README.</desc>
  <defs>
    <linearGradient id="sky" x1="0" y1="0" x2="1" y2="1">
      <stop offset="0" stop-color="#050608"/>
      <stop offset="0.55" stop-color="#0d1117"/>
      <stop offset="1" stop-color="#1f080b"/>
    </linearGradient>
    <linearGradient id="tower" x1="0" y1="1" x2="0" y2="0">
      <stop offset="0" stop-color="#7f1d1d"/>
      <stop offset="0.55" stop-color="#e23636"/>
      <stop offset="1" stop-color="#fca5a5"/>
    </linearGradient>
  </defs>
  <rect width="1100" height="300" rx="18" fill="url(#sky)"/>
  <g opacity="0.22" stroke="#f87171" stroke-width="1">
    <path d="M70 70 H1030"/>
    <path d="M70 120 H1030"/>
    <path d="M70 170 H1030"/>
    <path d="M70 220 H1030"/>
  </g>
  <g fill="url(#tower)">
    <rect x="88" y="214" width="24" height="36" rx="3"/>
    <rect x="124" y="190" width="24" height="60" rx="3"/>
    <rect x="160" y="228" width="24" height="22" rx="3"/>
    <rect x="196" y="176" width="24" height="74" rx="3"/>
    <rect x="232" y="205" width="24" height="45" rx="3"/>
    <rect x="268" y="151" width="24" height="99" rx="3"/>
    <rect x="304" y="218" width="24" height="32" rx="3"/>
    <rect x="340" y="166" width="24" height="84" rx="3"/>
    <rect x="376" y="132" width="24" height="118" rx="3"/>
    <rect x="412" y="198" width="24" height="52" rx="3"/>
    <rect x="448" y="111" width="24" height="139" rx="3"/>
    <rect x="484" y="180" width="24" height="70" rx="3"/>
    <rect x="520" y="146" width="24" height="104" rx="3"/>
    <rect x="556" y="90" width="24" height="160" rx="3"/>
    <rect x="592" y="170" width="24" height="80" rx="3"/>
    <rect x="628" y="136" width="24" height="114" rx="3"/>
    <rect x="664" y="210" width="24" height="40" rx="3"/>
    <rect x="700" y="155" width="24" height="95" rx="3"/>
    <rect x="736" y="122" width="24" height="128" rx="3"/>
    <rect x="772" y="185" width="24" height="65" rx="3"/>
    <rect x="808" y="147" width="24" height="103" rx="3"/>
    <rect x="844" y="202" width="24" height="48" rx="3"/>
    <rect x="880" y="174" width="24" height="76" rx="3"/>
    <rect x="916" y="215" width="24" height="35" rx="3"/>
    <rect x="952" y="192" width="24" height="58" rx="3"/>
    <rect x="988" y="224" width="24" height="26" rx="3"/>
  </g>
  <path d="M70 251 H1030" stroke="#f8fafc" stroke-width="2" opacity="0.75"/>
  <text x="70" y="52" fill="#f8fafc" font-family="Segoe UI, Arial, sans-serif" font-size="28" font-weight="800">My GitHub 2026 Skyline</text>
  <text x="70" y="278" fill="#cbd5e1" font-family="Segoe UI, Arial, sans-serif" font-size="16" font-weight="600">Maximum effort, one contribution block at a time.</text>
  <text x="817" y="278" fill="#f87171" font-family="Segoe UI, Arial, sans-serif" font-size="16" font-weight="700">gokuloverseeker</text>
</svg>
