<svg xmlns="http://www.w3.org/2000/svg" viewBox="0 0 24 24" fill="#FF0000" width="30" height="30">
  <path d="M13.483 0a1.374 1.374 0 0 0-.961.438L7.116 6.226l-3.854 4.126a5.266 5.266 0 0 0-1.209 2.104 5.35 5.35 0 0 0-.125.513 5.527 5.527 0 0 0 .062 2.362 5.83 5.83 0 0 0 .349 1.017 5.938 5.938 0 0 0 1.271 1.818l4.277 4.193.039.038c2.248 2.165 5.852 2.133 8.063-.074l2.396-2.392c.54-.54.54-1.414.003-1.955a1.378 1.378 0 0 0-1.951-.003l-2.396 2.392a3.021 3.021 0 0 1-4.205.038l-.02-.019-4.276-4.193c-.652-.64-.972-1.47-.948-2.263a2.68 2.68 0 0 1 .066-.523 2.545 2.545 0 0 1 .619-1.164L9.13 8.114c1.058-1.134 3.204-1.027 4.295.028l1.332 1.273 1.646-1.777-1.373-1.312c-1.213-1.16-2.792-1.73-4.408-1.734a6.393 6.393 0 0 0-.444.012 6.454 6.454 0 0 0-1.581.378l-3.971 3.79V4.502c0-.754.606-1.368 1.36-1.373h9.876a1.374 1.374 0 0 0 1.374-1.374A1.38 1.38 0 0 0 16.726.002z"/>
</svg>
